<?xml version="1.0" encoding="UTF-8" standalone="no"?>
<svg
   xmlns:dc="http://purl.org/dc/elements/1.1/"
   xmlns:cc="http://creativecommons.org/ns#"
   xmlns:rdf="http://www.w3.org/1999/02/22-rdf-syntax-ns#"
   xmlns:svg="http://www.w3.org/2000/svg"
   xmlns="http://www.w3.org/2000/svg"
   xmlns:sodipodi="http://sodipodi.sourceforge.net/DTD/sodipodi-0.dtd"
   xmlns:inkscape="http://www.inkscape.org/namespaces/inkscape"
   width="100%"
   height="100%"
   viewBox="0 0 596 842"
   version="1.1"
   xml:space="preserve"
   style="fill-rule:evenodd;clip-rule:evenodd;"
   id="svg4537"
   sodipodi:docname="pastureTotal.svg"
   inkscape:version="0.92.2 5c3e80d, 2017-08-06"><metadata
     id="metadata4543"><rdf:RDF><cc:Work
         rdf:about=""><dc:format>image/svg+xml</dc:format><dc:type
           rdf:resource="http://purl.org/dc/dcmitype/StillImage" /><dc:title></dc:title></cc:Work></rdf:RDF></metadata><defs
     id="defs4541" /><sodipodi:namedview
     pagecolor="#ffffff"
     bordercolor="#666666"
     borderopacity="1"
     objecttolerance="10"
     gridtolerance="10"
     guidetolerance="10"
     inkscape:pageopacity="0"
     inkscape:pageshadow="2"
     inkscape:window-width="1440"
     inkscape:window-height="790"
     id="namedview4539"
     showgrid="false"
     inkscape:zoom="0.9691226"
     inkscape:cx="187.29308"
     inkscape:cy="311.11276"
     inkscape:window-x="0"
     inkscape:window-y="1"
     inkscape:window-maximized="1"
     inkscape:current-layer="layer4" /><g
     inkscape:groupmode="layer"
     id="layer1"
     inkscape:label="Layer 1"
     style="display:inline"><g
       style="clip-rule:evenodd;fill-rule:evenodd"
       id="path842"
       transform="translate(0,2.70709e-4)"><path
         d="m 128.438,658.613 c -0.484,-0.017 -0.939,0.055 -0.939,0.23 0,0.13 -0.816,0.207 -1.813,0.171 -0.996,-0.036 -1.811,-0.084 -1.811,-0.105 0,-0.286 -2.214,-0.25 -3.303,0.053 -1.783,0.496 -2.285,0.976 -2.04,1.951 0.226,0.9 -0.418,1.283 -1.983,1.179 -0.849,-0.056 -1.024,0.045 -1.024,0.587 0,0.737 -0.323,0.837 -0.884,0.276 -0.226,-0.227 -0.377,-0.249 -0.377,-0.054 0,0.179 -0.213,0.326 -0.473,0.326 -0.26,0 -0.472,-0.174 -0.472,-0.387 0,-0.451 -0.871,-0.851 -1.289,-0.592 -0.157,0.097 -0.286,-0.044 -0.286,-0.314 0,-0.27 -0.108,-0.475 -0.238,-0.454 -0.869,0.137 -1.654,-0.105 -1.654,-0.51 0,-0.26 -0.141,-0.473 -0.314,-0.473 -0.173,0 -0.318,0.177 -0.32,0.393 -0.004,0.291 -0.076,0.283 -0.276,-0.031 -0.193,-0.306 -0.438,-0.341 -0.862,-0.122 -0.325,0.167 -0.767,0.242 -0.984,0.164 -0.217,-0.077 -0.395,-0.011 -0.395,0.147 0,0.159 -0.176,0.305 -0.393,0.323 -0.702,0.06 -1.33,0.241 -1.746,0.501 -0.31,0.194 -0.356,0.052 -0.191,-0.602 0.164,-0.654 0.111,-0.82 -0.224,-0.704 -0.242,0.084 -0.43,0.442 -0.418,0.797 0.013,0.383 -0.133,0.586 -0.361,0.498 -0.211,-0.081 -0.487,0.02 -0.612,0.224 -0.175,0.284 -0.286,0.281 -0.463,-0.006 -0.273,-0.44 -2.209,-0.646 -2.209,-0.234 0,0.153 -0.425,0.185 -0.945,0.071 -0.778,-0.17 -0.911,-0.119 -0.754,0.291 0.113,0.296 0.017,0.516 -0.236,0.546 -0.235,0.025 -0.57,0.08 -0.744,0.12 -0.173,0.04 -0.491,0.089 -0.708,0.11 -0.217,0.02 -0.395,0.319 -0.395,0.665 0,0.347 -0.106,0.631 -0.236,0.631 -0.6,10e-4 -1.97,1.562 -1.97,2.246 0,0.732 -1.103,1.76 -1.703,1.586 -0.157,-0.046 -0.403,0.101 -0.547,0.327 -0.174,0.274 -0.261,0.122 -0.265,-0.457 -0.002,-0.476 -0.161,-0.865 -0.353,-0.865 -0.192,0 -0.262,0.228 -0.154,0.509 0.157,0.409 0.035,0.479 -0.617,0.355 -0.679,-0.13 -0.943,0.049 -1.592,1.077 -0.502,0.795 -0.913,1.147 -1.159,0.993 -1.067,-0.666 -1.651,-0.384 -1.518,0.731 0.024,0.197 -0.172,0.441 -0.435,0.543 -0.263,0.1 -0.479,0.4 -0.479,0.665 0,0.266 -0.248,0.486 -0.551,0.489 -0.304,0.003 -0.906,0.286 -1.339,0.625 -0.434,0.339 -0.966,0.62 -1.183,0.623 -0.216,0.003 -0.393,0.156 -0.393,0.34 0,0.183 -0.166,0.232 -0.368,0.106 -0.245,-0.151 -0.304,-0.059 -0.175,0.276 0.106,0.277 0.024,0.573 -0.183,0.658 -0.269,0.11 -0.242,0.249 0.096,0.487 0.275,0.195 0.319,0.338 0.106,0.34 -0.38,0.006 -0.39,0.772 -0.014,1.149 0.119,0.119 0.046,0.422 -0.163,0.673 -0.303,0.366 -0.262,0.542 0.202,0.881 0.687,0.502 0.457,1.386 -0.419,1.615 -0.589,0.154 -0.589,0.168 0.001,0.758 0.331,0.331 0.749,0.601 0.929,0.601 0.181,0 0.634,0.284 1.006,0.63 l 0.676,0.631 h -0.784 c -0.432,0 -0.96,-0.176 -1.175,-0.392 -0.25,-0.249 -0.473,-0.278 -0.615,-0.079 -0.123,0.172 -0.649,0.312 -1.169,0.312 -0.588,0 -0.916,0.15 -0.867,0.395 0.067,0.335 -0.756,0.56 -1.575,0.431 -0.13,-0.02 -0.236,0.104 -0.236,0.278 0,0.173 0.158,0.315 0.35,0.315 0.193,0 0.015,0.279 -0.394,0.62 -0.41,0.341 -0.602,0.623 -0.428,0.629 0.177,0.006 0.322,0.975 0.332,2.215 0.02,2.492 -0.012,2.525 -2.485,2.418 -0.837,-0.036 -1.581,0.025 -1.65,0.139 -0.069,0.111 -0.481,0.202 -0.917,0.202 -0.959,0 -1.761,0.603 -1.546,1.164 0.086,0.225 -0.028,0.605 -0.255,0.844 -0.226,0.239 -0.425,0.612 -0.443,0.829 -0.071,0.894 -0.147,1.023 -0.599,1.023 -0.702,0 -0.572,0.438 0.237,0.793 0.596,0.261 0.695,0.521 0.627,1.642 l -0.081,1.331 1.027,-0.193 c 0.565,-0.106 1.263,-0.399 1.554,-0.651 1.163,-1.007 2.423,0.533 2.185,2.671 -0.05,0.447 0.09,0.71 0.379,0.71 0.252,0 0.55,0.318 0.661,0.708 0.201,0.704 0.205,0.704 0.672,-0.149 0.41,-0.748 0.642,-0.85 1.804,-0.789 1.176,0.797 -0.488,1.207 0.861,2.258 0,0.454 0.165,0.52 0.866,0.346 0.477,-0.119 0.915,-0.347 0.972,-0.508 0.058,-0.16 0.366,-0.291 0.684,-0.291 0.319,0 1.001,-0.354 1.516,-0.787 1.219,-1.025 1.761,-1.025 1.504,0 -0.146,0.581 -0.072,0.787 0.282,0.787 0.789,0 0.934,0.04 1.324,0.363 0.261,0.217 0.532,0.067 0.903,-0.5 0.545,-0.832 1.315,-1.014 2.273,-0.536 0.766,0.382 2.557,0.995 3.824,1.309 0.588,0.145 1.159,0.41 1.269,0.588 0.11,0.178 0.48,0.32 0.821,0.317 1.076,-0.009 1.873,0.181 2.117,0.507 0.15,0.2 0.338,0.156 0.515,-0.119 0.424,-0.657 1.032,-0.091 0.922,0.858 -0.077,0.664 0.048,0.857 0.611,0.937 0.581,0.082 0.71,-0.049 0.71,-0.727 0,-0.473 0.135,-0.745 0.315,-0.634 0.174,0.107 0.447,-0.148 0.607,-0.568 0.328,-0.863 1.172,-1.322 1.381,-0.753 0.107,0.291 0.229,0.29 0.537,0 0.311,-0.292 0.525,-0.223 0.978,0.316 0.497,0.592 0.625,0.623 0.897,0.218 0.174,-0.26 0.322,-0.332 0.33,-0.158 0.009,0.173 0.224,0.04 0.479,-0.296 0.254,-0.336 0.461,-0.51 0.461,-0.384 0,0.126 0.277,0.082 0.613,-0.097 0.433,-0.23 0.675,-0.223 0.83,0.029 0.121,0.196 1.087,0.749 2.147,1.231 2.094,0.953 1.84,1.747 2.362,3.126 0.432,1.138 0.092,8.688 -0.337,9.49 -0.668,1.249 -0.894,1.829 -4.862,2.032 -7.24,1.116 -0.752,0.137 -9.659,0.926 -3.25,0.296 -4.432,0.099 -9.553,-0.295 -5.121,-0.394 -5.81,0.196 -5.81,0.196 0,0 -2.856,0 -5.023,0.296 -2.167,0.295 -2.857,0.198 -5.713,0.198 -2.856,0 -3.546,-0.296 -6.796,-0.887 -3.25,-0.59 -4.628,-0.492 -4.628,-0.492 0,0 1.113,-0.296 -1.447,0.098 -2.561,0.394 -4.236,0.395 -4.236,0.395 H 51.54 v 85.68 h 426.124 v -60.478 c 0,0 -0.58,0.651 -3.831,0.454 -5.727,0.279 -6.039,-1.763 -11.428,-0.643 -5.81,0.788 -2.11,0.661 -7.626,1.744 -5.515,1.083 -1.851,0.009 -11.109,0.402 -9.258,0.394 -8.673,0.69 -18.128,0.887 -9.455,0.197 -11.045,-1.224 -26.114,-0.928 -15.069,0.295 -10.947,-0.426 -22.076,-0.721 -11.129,-0.296 -9.505,0.36 -22.309,0.065 -12.803,-0.296 -8.501,0.524 -19.04,-0.165 -10.538,-0.689 -12.607,0.886 -23.047,-1.281 -10.439,-2.167 -10.734,-2.069 -21.568,-4.038 -10.834,-1.97 -7.092,-1.772 -14.479,-2.363 -6.279,-0.285 -8.545,-2.101 -13.198,-2.069 -1.477,0 -2.855,-0.197 -11.424,-1.97 -8.569,-1.773 -7.191,-1.575 -7.191,-1.575 0,0 -9.355,-1.97 -16.151,-3.644 -6.796,-1.675 -5.417,-1.282 -8.667,-1.676 -3.25,-0.394 -4.531,-0.295 -13.296,-1.772 -8.165,-1.376 -10.926,-1.621 -19.877,-2.436 -0.018,-0.056 -0.023,-0.092 -0.047,-0.16 -0.115,-0.318 -0.616,-0.595 -0.687,-0.663 -0.394,-0.377 -0.781,-1.318 -0.838,-2.042 -0.097,-1.23 0.436,-4.997 0.923,-6.527 0.216,-0.676 0.398,-1.314 0.407,-1.42 0.009,-0.105 0.18,-0.271 0.379,-0.367 0.201,-0.096 0.53,-0.432 0.733,-0.751 0.203,-0.318 0.437,-0.573 0.52,-0.567 0.879,0.065 2.77,2.782 3.115,4.476 0.126,0.62 0.122,0.728 -0.039,0.882 -0.724,0.693 -0.829,1.479 -0.328,2.455 0.198,0.385 0.529,1.202 0.736,1.814 0.333,0.986 0.359,1.153 0.221,1.476 -0.086,0.201 -0.128,0.422 -0.092,0.489 0.119,0.224 0.883,0.562 1.449,0.642 0.482,0.067 0.6,0.038 0.881,-0.211 0.655,-0.582 0.863,-1.144 1.039,-2.807 0.158,-1.498 0.432,-2.71 0.609,-2.698 0.049,0.003 0.102,0.354 0.117,0.78 0.024,0.63 0.049,0.712 0.131,0.439 0.056,-0.185 0.103,-0.619 0.105,-0.965 0.004,-0.604 0.01,-0.616 0.159,-0.33 0.094,0.181 0.16,0.23 0.17,0.126 0.028,-0.287 -0.195,-1.307 -0.374,-1.721 -0.168,-0.388 -0.165,-0.399 0.243,-0.994 0.402,-0.585 0.487,-0.872 0.162,-0.544 -0.247,0.251 -0.373,0.179 -0.226,-0.127 0.073,-0.152 0.115,-0.278 0.093,-0.279 -0.021,-0.002 -0.253,0.138 -0.516,0.312 l -0.478,0.315 -0.232,-0.938 c -0.246,-0.995 -0.695,-1.889 -2.29,-4.558 -1.411,-2.363 -3.328,-4.414 -6.231,-6.671 l -1.098,-0.855 -0.998,-0.009 c -0.548,-0.002 -1.634,0.082 -2.414,0.186 -1.745,0.235 -3.607,0.205 -4.818,-0.077 -0.49,-0.115 -1.948,-0.517 -3.237,-0.895 -2.548,-0.746 -3.195,-0.84 -4.742,-0.691 -2.746,0.265 -4.301,1.011 -4.956,2.379 -0.553,1.156 -1.789,2.946 -1.833,5.342 -0.031,1.683 0.988,4.318 1.091,4.655 0.028,0.09 -0.112,0.376 -0.311,0.634 -0.356,0.463 -0.363,0.491 -0.455,2.063 -0.052,0.876 -0.204,2.237 -0.34,3.022 -0.222,1.284 -0.346,1.468 -0.195,1.818 0.267,0.616 0.313,0.981 0.149,1.209 -0.047,0.066 -0.087,0.177 -0.119,0.306 -2.386,0.05 -4.38,0.165 -6.186,0.249 -4.235,0.197 -8.668,0 -14.675,0.099 -6.008,0.098 -7.781,-0.494 -10.145,-1.085 -0.753,-0.188 -1.317,-0.327 -1.874,-0.448 0.181,-0.103 -0.099,-0.167 -1.004,-0.297 -0.78,-0.112 -3.12,-0.294 -5.199,-0.405 -2.196,-0.117 -3.502,-0.51 -3.879,-0.746 -0.741,-0.464 -1.261,-3.782 -1.257,-7.164 l 0.466,-1.948 1.853,-1.523 c 1.273,-1.107 1.268,-2.221 1.702,-3.229 0.593,-1.378 0.644,-1.746 1.36,-1.628 0.135,0.022 0.324,-0.164 0.42,-0.415 0.188,-0.489 0.91,-0.354 1.699,0.317 0.26,0.221 0.614,0.413 0.788,0.425 0.173,0.011 0.331,0.163 0.353,0.337 0.022,0.173 0.058,0.457 0.079,0.63 0.022,0.174 0.192,0.316 0.377,0.316 0.188,0 0.251,-0.267 0.143,-0.607 -0.254,-0.798 0.579,-1.547 3.301,-2.973 1.97,-1.032 2.215,-1.092 2.663,-0.645 0.271,0.272 0.414,0.624 0.315,0.783 -0.098,0.16 0.02,0.29 0.263,0.29 0.242,0 0.601,0.532 0.798,1.182 0.196,0.65 0.715,1.565 1.153,2.034 0.991,1.061 0.991,1.196 0.008,1.196 -0.434,0 -0.788,0.06 -0.788,0.132 0,0.504 0.455,1.129 0.821,1.129 0.242,0 0.439,0.216 0.439,0.48 0,0.426 0.105,0.425 0.955,-0.014 0.984,-0.509 1.742,-0.375 1.362,0.239 -0.118,0.191 0.112,0.118 0.513,-0.163 0.634,-0.444 0.841,-0.455 1.568,-0.079 0.752,0.389 0.875,0.372 1.213,-0.169 0.207,-0.332 0.376,-0.864 0.376,-1.183 0,-0.318 0.372,-0.923 0.827,-1.343 l 0.828,-0.763 -0.218,0.708 c -0.132,0.429 -0.086,0.71 0.117,0.71 0.185,0 0.337,-0.284 0.337,-0.629 0,-0.448 0.18,-0.601 0.623,-0.534 0.342,0.053 0.731,0.217 0.865,0.365 0.134,0.147 0.067,0.167 -0.149,0.042 -0.244,-0.14 -0.393,-0.04 -0.393,0.264 0,0.27 0.132,0.492 0.294,0.492 0.162,0 0.694,0.164 1.182,0.366 0.488,0.201 0.993,0.345 1.123,0.315 0.13,-0.029 0.236,0.232 0.236,0.579 0,0.731 0.792,0.853 1.057,0.163 0.107,-0.282 0.386,-0.389 0.693,-0.271 0.412,0.158 0.494,0.017 0.418,-0.715 -0.053,-0.501 -0.225,-1.087 -0.383,-1.304 -0.518,-0.712 1.484,-0.462 2.104,0.262 0.324,0.378 0.766,0.578 1.044,0.472 0.265,-0.1 0.642,-0.084 0.838,0.037 0.195,0.121 0.899,0.25 1.563,0.288 0.93,0.052 1.131,-0.02 0.88,-0.325 -0.228,-0.275 -0.189,-0.571 0.133,-0.996 0.251,-0.33 0.46,-0.493 0.466,-0.356 0.006,0.136 0.303,0.09 0.661,-0.101 0.52,-0.279 0.576,-0.438 0.277,-0.798 -0.293,-0.354 -0.281,-0.453 0.058,-0.456 0.294,-0.003 0.319,-0.079 0.081,-0.236 -0.632,-0.416 -0.801,-1.556 -0.305,-2.052 0.258,-0.258 0.369,-0.577 0.247,-0.71 -0.122,-0.133 0.121,-0.156 0.539,-0.053 0.899,0.222 2.028,-0.294 1.723,-0.788 -0.145,-0.235 0.054,-0.278 0.622,-0.135 0.494,0.124 0.835,0.077 0.835,-0.113 0,-0.176 -0.157,-0.32 -0.349,-0.32 -0.192,0 -0.268,-0.214 -0.168,-0.474 0.111,-0.288 0,-0.472 -0.282,-0.472 -0.562,0 -0.615,-0.527 -0.071,-0.708 0.274,-0.092 0.212,-0.309 -0.21,-0.731 -0.423,-0.423 -0.642,-0.487 -0.733,-0.212 -0.072,0.215 -0.27,0.391 -0.44,0.391 -0.442,0 0.035,-1.336 0.644,-1.805 0.399,-0.307 0.42,-0.445 0.101,-0.657 -0.223,-0.147 -0.323,-0.482 -0.223,-0.743 0.308,-0.802 -0.712,-1.331 -2.392,-1.242 -1.19,0.063 -1.597,-0.037 -1.747,-0.428 -0.265,-0.691 0.08,-0.971 0.634,-0.512 0.701,0.582 0.967,-0.175 0.377,-1.075 -0.64,-0.977 -0.64,-1.287 -0.001,-0.648 0.562,0.563 1.137,0.383 0.884,-0.277 -0.206,-0.535 -1.541,-0.898 -2.354,-0.64 -0.419,0.133 -0.603,0.041 -0.603,-0.303 0,-0.271 -0.204,-0.493 -0.453,-0.493 -0.249,0 -0.851,-0.165 -1.339,-0.366 -0.488,-0.201 -1.065,-0.338 -1.281,-0.302 -0.217,0.036 -0.395,-0.065 -0.395,-0.225 0,-0.453 0.884,-1.074 1.227,-0.863 0.168,0.105 0.404,0.031 0.525,-0.164 0.121,-0.196 0.024,-0.479 -0.215,-0.631 -0.314,-0.199 -0.324,-0.277 -0.039,-0.28 0.216,-0.002 0.394,-0.157 0.394,-0.341 0,-0.193 -0.269,-0.251 -0.63,-0.136 -0.362,0.115 -0.631,0.056 -0.631,-0.137 0,-0.185 -0.284,-0.337 -0.631,-0.337 -0.346,0 -0.629,-0.14 -0.629,-0.313 0,-0.174 0.142,-0.316 0.315,-0.316 0.174,0 0.314,-0.138 0.314,-0.306 0,-0.168 -0.212,-0.223 -0.472,-0.124 -0.26,0.1 -0.472,0.023 -0.472,-0.167 0,-0.192 0.142,-0.349 0.315,-0.349 0.718,0 0.223,-0.556 -1.182,-1.328 -0.823,-0.453 -1.462,-0.978 -1.418,-1.166 0.043,-0.189 -0.056,-0.341 -0.221,-0.341 -0.166,0 -0.395,-0.499 -0.509,-1.108 -0.114,-0.608 -0.336,-1.184 -0.492,-1.281 -0.157,-0.097 -0.202,-0.311 -0.101,-0.475 0.102,-0.164 0.288,-0.235 0.413,-0.157 0.125,0.077 0.26,-0.287 0.3,-0.811 0.055,-0.724 -0.08,-0.991 -0.565,-1.118 -0.351,-0.091 -0.637,-0.367 -0.637,-0.612 0,-0.245 -0.21,-0.526 -0.468,-0.625 -0.378,-0.145 -0.333,-0.292 0.237,-0.768 0.387,-0.323 0.527,-0.592 0.31,-0.598 -0.216,-0.006 -0.394,-0.308 -0.394,-0.674 0,-0.45 -0.148,-0.607 -0.457,-0.489 -0.321,0.123 -0.398,0.023 -0.261,-0.333 0.136,-0.353 0.075,-0.434 -0.198,-0.265 -0.234,0.145 -0.63,-0.012 -0.981,-0.389 -0.324,-0.347 -0.773,-0.708 -0.999,-0.801 -0.299,-0.123 -0.217,-0.341 0.297,-0.792 0.39,-0.343 0.705,-0.812 0.699,-1.044 -0.007,-0.291 -0.141,-0.251 -0.43,0.13 -0.504,0.664 -0.821,0.706 -0.821,0.111 0,-0.636 -0.877,-0.905 -2.717,-0.838 -1.581,0.058 -1.612,0.041 -1.458,-0.762 0.147,-0.773 0.098,-0.809 -0.869,-0.638 -0.797,0.14 -1.123,0.04 -1.465,-0.45 -0.251,-0.357 -0.642,-0.551 -0.908,-0.449 -0.335,0.128 -0.411,0.033 -0.268,-0.338 0.166,-0.433 0.036,-0.49 -0.785,-0.346 -0.569,0.1 -0.983,0.038 -0.983,-0.146 0,-0.176 -0.213,-0.32 -0.473,-0.32 -0.26,0 -0.473,0.172 -0.473,0.382 0,0.236 -0.211,0.171 -0.551,-0.169 -0.483,-0.483 -0.493,-0.59 -0.079,-0.856 0.392,-0.252 0.353,-0.335 -0.237,-0.497 -0.389,-0.106 -0.708,-0.306 -0.708,-0.442 0,-0.135 -0.415,-0.219 -0.923,-0.182 -0.803,0.055 -0.883,-0.012 -0.616,-0.511 0.17,-0.316 0.221,-0.714 0.116,-0.883 -0.111,-0.18 -0.621,-0.285 -1.104,-0.302 z m -40.7,39.254 c 1.263,0.079 1.306,0.097 1.306,0.604 0,0.26 -0.214,0.474 -0.474,0.474 -0.26,0 -0.472,-0.157 -0.472,-0.349 0,-0.192 -0.201,-0.272 -0.446,-0.178 -0.246,0.094 -0.514,-0.003 -0.596,-0.216 -0.097,-0.254 0.138,-0.368 0.682,-0.335 z m 22.129,0.852 c 0.255,0.031 0.472,0.395 0.503,1.038 0.069,1.463 0.087,1.49 0.647,1.036 0.362,-0.295 0.457,-0.308 0.296,-0.04 -0.13,0.216 -0.103,0.395 0.061,0.395 0.163,0 0.378,0.317 0.48,0.704 0.305,1.166 -0.25,1.257 -1.518,0.249 -0.66,-0.524 -1.392,-0.953 -1.628,-0.953 -0.51,0 -0.571,-0.507 -0.096,-0.8 0.184,-0.114 0.468,-0.56 0.632,-0.99 0.145,-0.382 0.332,-0.586 0.512,-0.631 0.037,-0.009 0.075,-0.011 0.111,-0.009 z m 6.423,0.538 c 0.386,0 0.151,0.66 -0.45,1.26 -0.478,0.478 -0.518,0.631 -0.167,0.631 0.282,0 0.392,0.184 0.282,0.472 -0.1,0.259 -0.317,0.472 -0.48,0.472 -0.297,0 -1.21,-1.895 -1.21,-2.511 0,-0.537 0.699,-0.858 0.809,-0.288 0.095,0.495 0.012,0.988 0.507,0.493 0.291,-0.291 0.61,-0.529 0.709,-0.529 z m -34.087,-0.974 c 0.065,0.009 0.149,0.035 0.256,0.076 0.304,0.117 0.683,0.214 0.842,0.214 0.491,0 0.32,0.819 -0.286,1.368 -0.798,0.721 -1.631,0.666 -1.63,-0.109 0,-0.346 0.208,-0.63 0.463,-0.63 0.303,0 0.393,-0.182 0.26,-0.527 -0.117,-0.305 -0.101,-0.422 0.095,-0.392 z m 53.217,-1.12 c 0.069,-0.008 0.148,-0.005 0.236,0.003 0.101,0.012 0.216,0.035 0.341,0.071 0.491,0.142 1.109,1.169 1.574,1.118 0.591,-0.065 1.086,0.617 1.328,1.068 0.251,0.469 0.412,0.539 0.588,0.254 0.172,-0.278 0.304,-0.29 0.457,-0.042 0.118,0.192 0.048,0.348 -0.156,0.348 -0.21,0 -0.302,0.262 -0.211,0.608 v 0.002 c 0.097,0.372 -0.104,0.855 -0.515,1.241 l -0.557,0.074 -0.827,-0.238 c -0.653,-0.733 -0.709,-1.604 -0.077,-1.214 0.149,0.092 0.367,-0.399 0.483,-0.586 0.385,-0.623 -0.101,-0.673 -0.975,-0.101 -0.861,0.565 -0.724,0.392 -0.351,-0.305 0.309,-0.578 0.179,-1.583 -0.223,-1.583 -0.266,0 -0.484,0.16 -0.484,0.355 0,0.244 -0.146,0.231 -0.473,-0.04 -0.634,-0.527 -0.641,-0.979 -0.158,-1.033 z m -45.141,1.962 c 0.056,-0.011 0.052,0.043 -0.02,0.163 -0.13,0.216 -0.099,0.393 0.07,0.393 0.169,0 0.358,-0.153 0.42,-0.34 0.065,-0.195 0.334,-0.094 0.634,0.238 0.491,0.543 0.442,0.783 -0.29,0.783 -0.428,0 -0.998,-0.08 -1.268,-0.174 -0.43,-0.151 -0.387,-0.435 0.106,-0.836 0.172,-0.14 0.291,-0.216 0.348,-0.227 z m 4.676,0.401 c 0.29,-0.02 0.697,0.133 1.208,0.462 0.552,0.355 0.556,0.383 0.043,0.221 -0.496,-0.157 -0.555,-0.062 -0.387,0.606 0.182,0.726 0.112,0.791 -0.851,0.791 -0.576,0 -1.324,-0.215 -1.66,-0.477 -0.336,-0.263 -0.47,-0.456 -0.297,-0.436 1.013,0.135 1.244,-0.065 0.631,-0.547 -0.624,-0.489 -0.623,-0.493 0.051,-0.292 0.376,0.111 0.767,0.067 0.869,-0.098 0.086,-0.14 0.219,-0.217 0.393,-0.23 z m 47.832,0.007 c 0.075,0.006 0.279,-0.102 0.366,-0.079 0.346,0.09 0.508,0.34 0.508,0.407 0,0.066 -0.146,0.465 -0.492,0.465 -0.347,0 -0.767,-0.473 -0.767,-0.63 0,-0.117 0.159,-0.178 0.385,-0.163 z m -21.275,1.615 c 0.173,0 1.083,-0.057 1.071,0.073 -0.012,0.131 -0.676,0.765 -0.825,1.112 -0.24,0.558 -0.519,0.45 -0.538,-0.318 -0.012,-0.477 0.119,-0.867 0.292,-0.867 z m -2.724,1.109 c 0.17,-0.03 0.332,0.084 0.521,0.312 0.214,0.258 0.207,0.51 0.436,0.51 0.577,0 0.851,0.538 0.548,1.076 -0.377,0.671 -2.306,2.203 -2.532,1.977 -0.383,-0.382 -0.651,-1.247 -0.035,-2.455 0.478,-0.936 0.78,-1.373 1.062,-1.42 z m 30.138,-0.991 c 0.174,0 0.316,0.284 0.316,0.631 0,0.346 -0.142,0.63 -0.316,0.63 -0.173,0 -0.866,-0.353 -0.866,-0.699 0,-0.347 0.693,-0.562 0.866,-0.562 z m -9.034,2.274 c 0.117,0 0.697,0.284 0.697,0.631 0,0.629 -0.705,0.798 -1.062,0.441 -0.226,-0.226 0.062,-1.072 0.365,-1.072 z m 24.485,2.833 c 0.031,-0.009 0.109,0.406 0.189,1.017 0.091,0.699 0.208,1.474 0.259,1.723 0.098,0.478 -0.062,0.967 -0.184,0.566 -0.092,-0.3 -0.311,-2.942 -0.273,-3.276 0.002,-0.02 0.005,-0.029 0.009,-0.03 z m 6.891,1.182 c 0.188,-0.017 0.402,0.104 1.048,0.512 2.139,1.35 4,2.079 6.225,2.439 1.135,0.183 3.138,0.623 3.209,0.704 0.031,0.035 -0.064,0.4 -0.211,0.81 -0.147,0.41 -0.405,1.558 -0.575,2.552 -0.429,2.515 -0.667,2.689 -1.156,3.848 -0.42,0.997 -0.43,1.044 -0.285,1.496 0.159,0.496 0.161,1.098 0.003,1.178 -0.052,0.025 -0.126,0.3 -0.164,0.609 -0.008,0.062 -0.01,0.097 -0.015,0.146 -2.324,-0.328 0.038,-0.336 -5.36,-0.904 -1.465,-0.155 -2.492,-0.252 -3.83,-0.326 -0.132,-0.242 -0.281,-0.487 -0.449,-0.72 -0.532,-0.738 -1.158,-1.582 -1.408,-3.278 -0.234,-1.585 -0.158,-2.049 0.66,-4.039 0.284,-0.691 0.541,-1.555 0.635,-2.125 0.19,-1.155 0.951,-2.621 1.478,-2.846 0.072,-0.03 0.132,-0.051 0.195,-0.056 z m -4.79,4.892 -0.134,0.644 c -0.117,0.565 -0.102,0.707 0.116,1.152 0.137,0.279 0.261,0.741 0.277,1.025 0.053,0.953 0.526,3.999 0.699,4.111 0.445,0.289 0.736,0.7 0.794,1.12 0.003,0.017 0.006,0.042 0.009,0.061 -1.479,-0.058 -2.562,-0.121 -3.877,-0.112 -0.354,-1.236 -0.513,-1.678 -0.259,-3.32 0.25,-1.618 0.471,-2.482 0.632,-2.465 0.045,0.006 0.247,0.427 0.446,0.937 0.21,0.536 0.588,1.204 0.895,1.58 0.488,0.598 0.534,0.628 0.557,0.367 0.035,-0.39 -0.159,-1.362 -0.368,-1.845 -0.096,-0.22 -0.207,-0.845 -0.249,-1.39 -0.042,-0.546 -0.102,-1.073 -0.134,-1.172 -0.036,-0.112 0.067,-0.279 0.268,-0.437 z m 17.239,0.988 c 0.041,0 0.061,0.08 0.09,0.208 0.043,0.192 0.116,0.814 0.162,1.383 0.045,0.569 0.142,1.349 0.216,1.732 0.074,0.383 0.127,1.438 0.116,2.346 l -0.02,1.652 0.367,0.432 c 0.343,0.405 0.155,0.472 0.053,0.987 -0.02,0.099 -0.016,0.165 -0.022,0.244 -1.654,-0.153 -2.24,-0.289 -3.151,-0.389 -0.032,-0.12 -0.065,-0.243 -0.115,-0.385 -0.443,-1.245 -0.435,-3.109 0.545,-4.876 0.253,-0.457 0.512,-1.006 0.576,-1.222 0.063,-0.215 0.358,-0.81 0.655,-1.322 0.331,-0.571 0.459,-0.789 0.528,-0.789 z"
         style="fill:none;fill-rule:nonzero;stroke:#000000;stroke-width:0.37px"
         id="path4528"
         inkscape:connector-curvature="0" /></g></g><g
     inkscape:groupmode="layer"
     id="layer2"
     inkscape:label="Layer 2"
     style="display:inline"><g
       style="clip-rule:evenodd;fill-rule:evenodd"
       id="g120"
       transform="translate(-20.4674,-12.5911)"><path
         id="path837-0"
         d="M 72.007,817.347 V 660.631 c 0,0 20.422,2.651 27.43,5.303 7.008,2.651 22.16,6.629 25.001,6.818 2.841,0.19 17.615,4.357 26.517,7.955 8.902,3.599 20.076,7.198 25.38,10.607 5.303,3.409 18.94,7.387 25.38,8.712 5.38,1.108 7.765,0.947 17.993,2.463 10.228,1.515 19.206,5.493 22.918,6.818 5.303,1.894 17.804,5.303 28.789,8.523 10.986,3.22 30.684,8.902 30.684,8.902 l 19.698,5.872 21.971,6.44 12.5,3.977 1.894,-0.947 c 0,0 0.758,-0.947 2.462,-1.515 1.705,-0.568 3.978,-0.568 3.978,-0.568 h 3.977 l 10.607,0.947 13.826,0.947 11.743,0.378 c 0,0 2.842,0.379 11.933,-1.136 9.091,-1.515 36.365,-8.334 41.858,-11.175 5.493,-2.841 14.016,-6.818 17.236,-9.849 3.22,-3.03 8.334,-5.493 12.69,-9.281 4.356,-3.788 9.659,-8.144 9.659,-8.144 v 114.669 z"
         style="fill:none;fill-rule:nonzero;stroke:#000000;stroke-width:0.28px"
         inkscape:connector-curvature="0" /></g></g><g
     inkscape:groupmode="layer"
     id="layer3"
     inkscape:label="Layer 3"
     style="display:inline"><g
       style="clip-rule:evenodd;fill-rule:evenodd"
       id="g200"
       transform="translate(-20.4669,-12.5911)"><path
         id="path845-7"
         d="m 72.007,744.536 98.835,-57.957 c 0,0 37.502,-16.668 76.519,-20.077 39.017,-3.409 59.852,-6.818 89.777,4.167 29.926,10.985 51.139,24.244 88.641,30.683 37.502,6.44 72.352,21.592 72.352,21.592 v 94.403 H 72.007 Z"
         style="fill:none;fill-rule:nonzero;stroke:#000000;stroke-width:0.28px"
         inkscape:connector-curvature="0" /></g></g><g
     inkscape:groupmode="layer"
     id="layer4"
     inkscape:label="Layer 4"
     style="display:inline"><g
       style="clip-rule:evenodd;fill-rule:evenodd"
       id="g278"
       transform="translate(-19.008528,-211.05211)"><path
         id="path841-3"
         d="m 72.008,671.048 c 0,0 14.739,-17.425 31.785,-25.002 21.971,-16.288 46.972,-30.304 68.943,-28.41 24.244,-2.652 62.124,20.834 84.853,11.364 22.728,-9.47 64.776,7.955 82.58,15.91 17.804,7.955 74.246,24.622 105.687,28.032 31.441,3.409 52.276,4.924 52.276,4.924 V 817.347 H 72.008 Z"
         style="fill:none;fill-rule:nonzero;stroke:#000000;stroke-width:0.28px"
         inkscape:connector-curvature="0" /></g></g></svg>